<?xml version="1.0" encoding="iso-8859-1"?>
<!-- Generator: Adobe Illustrator 15.0.0, SVG Export Plug-In . SVG Version: 6.00 Build 0)  -->
<!DOCTYPE svg PUBLIC "-//W3C//DTD SVG 1.1//EN" "http://www.w3.org/Graphics/SVG/1.1/DTD/svg11.dtd">
<svg version="1.1" id="Layer_1" xmlns="http://www.w3.org/2000/svg" xmlns:xlink="http://www.w3.org/1999/xlink" x="0px" y="0px"
	 width="128px" height="128px" viewBox="0 0 128 128" style="enable-background:new 0 0 128 128;" xml:space="preserve">
<g>
	<circle style="fill:#C2D5D8;" cx="64" cy="64" r="64"/>
	<path style="fill:#B7C9CC;" d="M114.209,103.661c-0.052-0.171-0.109-0.341-0.197-0.492c-0.054-0.219-0.14-0.423-0.248-0.612
		c-0.054-0.221-0.14-0.425-0.248-0.615c-0.054-0.219-0.14-0.424-0.248-0.613c-0.054-0.219-0.14-0.424-0.248-0.615
		c-0.054-0.219-0.14-0.423-0.248-0.613c-0.054-0.22-0.14-0.424-0.248-0.615c-0.053-0.219-0.14-0.422-0.248-0.612
		c-0.053-0.22-0.139-0.424-0.248-0.615c-0.053-0.219-0.139-0.423-0.248-0.612c-0.053-0.221-0.139-0.424-0.248-0.615
		c-0.053-0.219-0.139-0.424-0.248-0.613c-0.053-0.219-0.139-0.424-0.248-0.615c-0.053-0.219-0.139-0.423-0.248-0.613
		c-0.053-0.221-0.141-0.426-0.251-0.619c-0.054-0.217-0.138-0.42-0.246-0.608c-0.054-0.219-0.14-0.423-0.248-0.614
		c-0.054-0.219-0.14-0.424-0.248-0.615c-0.053-0.219-0.14-0.422-0.248-0.612c-0.053-0.22-0.139-0.425-0.248-0.615
		c-0.053-0.219-0.139-0.423-0.248-0.612c-0.053-0.22-0.139-0.425-0.248-0.615c-0.053-0.219-0.139-0.424-0.247-0.613
		c-0.054-0.221-0.14-0.424-0.248-0.615c-0.054-0.219-0.14-0.423-0.248-0.613c-0.054-0.219-0.14-0.424-0.248-0.615
		c-0.054-0.219-0.14-0.422-0.248-0.612c-0.054-0.22-0.14-0.424-0.248-0.615c-0.053-0.219-0.14-0.423-0.248-0.612
		c-0.053-0.22-0.139-0.425-0.248-0.615c-0.053-0.219-0.139-0.424-0.248-0.613c-0.053-0.221-0.139-0.424-0.248-0.615
		c-0.053-0.219-0.139-0.423-0.248-0.613c-0.053-0.219-0.139-0.424-0.248-0.615c-0.053-0.219-0.139-0.422-0.248-0.612
		c-0.053-0.219-0.139-0.424-0.248-0.614c-0.053-0.22-0.139-0.424-0.248-0.615c-0.053-0.219-0.139-0.422-0.248-0.612
		c-0.053-0.22-0.139-0.425-0.248-0.615c-0.053-0.219-0.139-0.423-0.248-0.613c-0.053-0.221-0.14-0.427-0.251-0.618
		c-0.053-0.218-0.138-0.42-0.246-0.609c-0.053-0.219-0.139-0.424-0.248-0.615c-0.053-0.219-0.139-0.423-0.247-0.613
		c-0.054-0.22-0.14-0.424-0.248-0.615c-0.054-0.219-0.14-0.422-0.248-0.612c-0.054-0.22-0.14-0.425-0.248-0.615
		c-0.054-0.219-0.14-0.423-0.248-0.612c-0.054-0.221-0.14-0.425-0.248-0.615c-0.053-0.219-0.14-0.424-0.248-0.613
		c-0.053-0.219-0.139-0.424-0.248-0.615c-0.053-0.219-0.139-0.423-0.248-0.613c-0.053-0.22-0.139-0.424-0.248-0.615
		c-0.053-0.219-0.139-0.422-0.248-0.612c-0.053-0.22-0.139-0.423-0.248-0.614c-0.053-0.219-0.139-0.424-0.248-0.615
		c-0.053-0.219-0.139-0.423-0.248-0.613c-0.053-0.219-0.139-0.424-0.248-0.614c-0.053-0.22-0.139-0.423-0.248-0.613
		c-0.053-0.219-0.139-0.424-0.248-0.614c-0.053-0.22-0.139-0.424-0.248-0.613c-0.053-0.221-0.139-0.424-0.248-0.615
		c-0.053-0.219-0.139-0.423-0.248-0.613c-0.053-0.219-0.139-0.424-0.248-0.615c-0.053-0.219-0.139-0.423-0.248-0.613
		c-0.053-0.221-0.14-0.427-0.25-0.619c-0.054-0.217-0.139-0.42-0.246-0.609c-0.054-0.219-0.14-0.424-0.248-0.615
		c-0.054-0.219-0.14-0.423-0.248-0.613c-0.054-0.22-0.14-0.424-0.248-0.615c-0.053-0.219-0.14-0.423-0.248-0.613
		c-0.053-0.219-0.139-0.423-0.248-0.614c-0.053-0.219-0.139-0.424-0.248-0.615c-0.053-0.219-0.139-0.423-0.248-0.613
		c-0.053-0.22-0.139-0.424-0.248-0.615c-0.053-0.219-0.139-0.423-0.248-0.613c-0.053-0.219-0.139-0.424-0.248-0.615
		c-0.053-0.219-0.139-0.423-0.248-0.613c-0.053-0.22-0.139-0.424-0.248-0.615c-0.053-0.219-0.139-0.423-0.248-0.613
		c-0.053-0.219-0.139-0.424-0.248-0.615c-0.053-0.219-0.139-0.423-0.248-0.613c-0.053-0.22-0.139-0.424-0.248-0.615
		c-0.053-0.219-0.139-0.423-0.248-0.613c-0.053-0.219-0.139-0.424-0.248-0.615c-0.053-0.219-0.139-0.423-0.248-0.613
		c-0.053-0.219-0.139-0.424-0.248-0.614c-0.053-0.22-0.139-0.424-0.248-0.615c-0.053-0.219-0.139-0.423-0.248-0.613
		c-0.053-0.219-0.139-0.424-0.248-0.615c-0.054-0.221-0.141-0.426-0.25-0.617c-0.053-0.218-0.139-0.421-0.246-0.611
		c-0.053-0.219-0.14-0.423-0.248-0.613c-0.053-0.219-0.139-0.424-0.248-0.615c-0.053-0.219-0.139-0.423-0.248-0.613
		c-0.053-0.22-0.139-0.424-0.248-0.615c-0.053-0.219-0.139-0.423-0.248-0.613c-0.053-0.219-0.139-0.424-0.248-0.615
		c-0.053-0.219-0.139-0.423-0.248-0.613c-0.053-0.22-0.139-0.424-0.248-0.615c-0.053-0.219-0.139-0.423-0.248-0.613
		c-0.053-0.219-0.139-0.424-0.248-0.615c-0.053-0.219-0.139-0.423-0.248-0.613c-0.053-0.219-0.139-0.424-0.248-0.614
		c-0.053-0.22-0.139-0.424-0.248-0.615c-0.053-0.219-0.139-0.423-0.248-0.613c-0.053-0.219-0.139-0.424-0.248-0.615
		c-0.053-0.219-0.139-0.423-0.248-0.613c-0.053-0.22-0.139-0.424-0.248-0.615c-0.053-0.219-0.139-0.423-0.248-0.613
		c-0.053-0.219-0.139-0.424-0.248-0.615c-0.053-0.219-0.139-0.423-0.248-0.613c-0.053-0.22-0.139-0.424-0.248-0.615
		c-0.053-0.219-0.139-0.423-0.248-0.613c-0.053-0.219-0.139-0.424-0.248-0.615c-0.053-0.221-0.139-0.426-0.25-0.617
		c-0.053-0.218-0.139-0.421-0.246-0.611c-0.053-0.219-0.139-0.423-0.248-0.613c-0.053-0.219-0.139-0.424-0.248-0.615
		c-0.053-0.219-0.139-0.423-0.248-0.613c-0.053-0.219-0.139-0.424-0.248-0.614c-0.053-0.22-0.139-0.424-0.248-0.615
		c-0.053-0.219-0.139-0.423-0.248-0.613c-0.053-0.219-0.139-0.424-0.248-0.615c-0.053-0.219-0.139-0.423-0.248-0.613
		c-0.053-0.22-0.139-0.424-0.248-0.615c-0.053-0.219-0.139-0.423-0.248-0.613C82.504,24.769,81.581,24,80.471,24
		c-4.629,0-7.783,3.267-8.928,8.946c-1.908-1.166-4.365-1.887-7.543-1.887c-3.036,0-5.408,0.664-7.278,1.74
		c-0.011-0.025-0.022-0.05-0.033-0.075c-0.079-0.211-0.162-0.416-0.249-0.617c-0.078-0.209-0.161-0.412-0.247-0.612
		c-0.079-0.21-0.162-0.415-0.249-0.616c-0.078-0.209-0.161-0.412-0.247-0.611C54.193,26.256,51.372,24,47.53,24
		c-1.3,0-2.353,1.052-2.353,2.353c0,0.426,0.122,0.819,0.319,1.164c0.053,0.219,0.139,0.424,0.248,0.615
		c0.053,0.219,0.139,0.423,0.248,0.613c0.053,0.219,0.139,0.424,0.248,0.615c0.053,0.219,0.139,0.423,0.248,0.613
		c0.053,0.219,0.139,0.424,0.248,0.615c0.053,0.219,0.139,0.423,0.248,0.613c0.053,0.219,0.139,0.424,0.248,0.614
		c0.053,0.219,0.139,0.424,0.248,0.615c0.053,0.219,0.139,0.423,0.248,0.613c0.053,0.219,0.139,0.424,0.248,0.615
		c0.054,0.221,0.14,0.426,0.25,0.617c0.053,0.218,0.139,0.421,0.247,0.611c0.053,0.219,0.139,0.423,0.248,0.613
		c0.053,0.219,0.139,0.424,0.248,0.615c0.053,0.219,0.139,0.423,0.248,0.613c0.053,0.219,0.139,0.424,0.248,0.615
		c0.053,0.219,0.139,0.423,0.248,0.613c0.053,0.219,0.139,0.424,0.248,0.615c0.053,0.219,0.139,0.423,0.248,0.613
		c0.053,0.219,0.139,0.424,0.248,0.615c0.053,0.219,0.139,0.423,0.248,0.613c0.041,0.172,0.104,0.334,0.181,0.49
		c-0.988,3.458-1.004,6.961-1.004,8.903C41.86,57.58,35.764,70.023,35.764,78.021c0,2.107,0.396,3.888,1.062,5.39
		c0.077,0.205,0.157,0.406,0.244,0.603c0.078,0.209,0.159,0.414,0.247,0.611c0.078,0.21,0.16,0.416,0.249,0.616
		c0.078,0.209,0.159,0.414,0.247,0.612c0.078,0.209,0.16,0.416,0.249,0.615c0.078,0.209,0.159,0.414,0.247,0.612
		c0.078,0.209,0.16,0.415,0.248,0.614c0.078,0.21,0.16,0.416,0.249,0.615c0.078,0.209,0.159,0.414,0.247,0.612
		c0.078,0.21,0.16,0.416,0.249,0.616c0.079,0.212,0.162,0.419,0.251,0.62c0.077,0.208,0.158,0.411,0.246,0.608
		c0.078,0.209,0.159,0.414,0.247,0.611c0.078,0.21,0.16,0.416,0.249,0.616c0.078,0.209,0.159,0.414,0.247,0.612
		c0.078,0.21,0.16,0.416,0.249,0.615c0.078,0.209,0.159,0.414,0.247,0.612c0.078,0.21,0.16,0.416,0.249,0.616
		c0.078,0.209,0.159,0.414,0.247,0.611c0.078,0.211,0.16,0.416,0.249,0.617c0.078,0.209,0.159,0.414,0.247,0.611
		c0.078,0.21,0.16,0.416,0.249,0.616c0.078,0.209,0.159,0.414,0.247,0.612c0.078,0.209,0.16,0.414,0.248,0.613
		c0.078,0.211,0.16,0.416,0.249,0.616c0.078,0.209,0.159,0.414,0.247,0.612c0.078,0.21,0.16,0.416,0.249,0.615
		c0.078,0.209,0.159,0.414,0.247,0.612c0.078,0.21,0.16,0.416,0.249,0.616c0.078,0.209,0.159,0.414,0.247,0.611
		c0.078,0.211,0.16,0.416,0.249,0.617c0.078,0.209,0.159,0.414,0.247,0.611c0.078,0.21,0.16,0.416,0.249,0.616
		c0.078,0.209,0.159,0.414,0.247,0.612c0.078,0.209,0.16,0.416,0.249,0.615c0.079,0.213,0.162,0.42,0.251,0.621
		c0.077,0.207,0.158,0.41,0.246,0.607c0.078,0.209,0.159,0.414,0.247,0.611c0.078,0.211,0.16,0.416,0.249,0.617
		c0.078,0.209,0.159,0.414,0.247,0.611c0.078,0.209,0.16,0.415,0.248,0.614c0.078,0.21,0.16,0.416,0.249,0.616
		c0.078,0.209,0.159,0.414,0.247,0.611c0.078,0.211,0.16,0.416,0.249,0.616c0.078,0.209,0.159,0.414,0.247,0.612
		c0.078,0.21,0.16,0.416,0.249,0.615c0.078,0.209,0.159,0.414,0.247,0.612c0.078,0.21,0.16,0.416,0.249,0.616
		c0.078,0.209,0.159,0.414,0.247,0.611c0.078,0.211,0.16,0.416,0.249,0.617c0.078,0.209,0.159,0.414,0.247,0.611
		c0.078,0.21,0.16,0.416,0.249,0.616c0.078,0.209,0.159,0.414,0.247,0.612c0.078,0.209,0.16,0.416,0.249,0.615
		c0.078,0.209,0.159,0.414,0.247,0.612c0.078,0.209,0.16,0.415,0.248,0.614c0.078,0.21,0.16,0.416,0.249,0.615
		c0.078,0.209,0.159,0.414,0.247,0.612c0.078,0.21,0.16,0.416,0.249,0.616c0.078,0.209,0.159,0.414,0.247,0.612
		c0.079,0.213,0.163,0.421,0.253,0.624c0.077,0.205,0.157,0.408,0.244,0.604c0.078,0.21,0.16,0.416,0.249,0.616
		c0.078,0.209,0.159,0.414,0.247,0.612c0.078,0.21,0.16,0.416,0.249,0.615c0.078,0.209,0.159,0.414,0.247,0.612
		c0.078,0.21,0.16,0.416,0.249,0.616c0.078,0.209,0.159,0.414,0.247,0.611c0.078,0.211,0.16,0.416,0.249,0.617
		c0.078,0.209,0.159,0.414,0.247,0.611c0.078,0.21,0.16,0.416,0.249,0.616c0.039,0.104,0.083,0.205,0.124,0.307
		c3.085,0.457,6.235,0.7,9.443,0.7C84.361,128,102.486,118.48,114.209,103.661z"/>
	<path style="fill:#242424;" d="M73.412,40.471c-1.301,0-2.354-1.053-2.354-2.353c0-8.84,3.519-14.118,9.412-14.118
		c1.301,0,2.353,1.052,2.353,2.353c0,1.3-1.052,2.353-2.353,2.353c-4.246,0-4.707,6.581-4.707,9.412
		C75.766,39.418,74.713,40.471,73.412,40.471z"/>
	<path style="fill:#242424;" d="M54.589,40.471c-1.301,0-2.354-1.053-2.354-2.353c0-2.831-0.459-9.412-4.706-9.412
		c-1.3,0-2.353-1.053-2.353-2.353c0-1.301,1.053-2.353,2.353-2.353c5.895,0,9.412,5.278,9.412,14.118
		C56.941,39.418,55.889,40.471,54.589,40.471z"/>
	<path style="fill:#FFD464;" d="M64,104c-8.311,0-16.471-8.157-16.471-16.471L64,52.235l16.471,35.294
		C80.471,95.843,72.313,104,64,104z"/>
	<path style="fill:#F2C95F;" d="M64,52.235l-2.235,4.79L76,87.529c0,7.563-6.757,14.978-14.235,16.256
		C62.506,103.912,63.251,104,64,104c8.313,0,16.471-8.157,16.471-16.471L64,52.235z"/>
	<polygon style="fill:#242424;" points="53.019,75.766 74.98,75.766 72.784,71.059 55.216,71.059 	"/>
	<polygon style="fill:#242424;" points="49.727,82.824 78.273,82.824 76.08,78.118 51.921,78.118 	"/>
	<path style="fill:#242424;" d="M47.529,87.529c0,0.791,0.095,1.574,0.234,2.353h32.473c0.141-0.778,0.234-1.563,0.234-2.353
		l-1.1-2.354H48.627L47.529,87.529z"/>
	<path style="fill:#242424;" d="M50.972,96.941h26.057c1.104-1.448,1.998-3.036,2.595-4.707H48.379
		C48.973,93.906,49.869,95.494,50.972,96.941z"/>
	<path style="fill:#263740;" d="M75.766,52.235c-1.302,0-22.229,0-23.53,0c-1.3,0-2.353-1.053-2.353-2.353
		c0-4.655,0-18.824,14.117-18.824c14.118,0,14.118,14.168,14.118,18.824C78.118,51.183,77.064,52.235,75.766,52.235z"/>
	<path style="fill:#1E2C33;" d="M64,31.059c-0.618,0-1.199,0.036-1.765,0.089C73.996,32.645,74,45.443,74,49.824
		c0,1.3-1.053,2.353-2.354,2.353c-0.998,0-13.545,0-19.921,0c0.165,0.036,0.334,0.059,0.51,0.059c1.301,0,22.229,0,23.529,0
		c1.301,0,2.354-1.053,2.354-2.353C78.118,45.227,78.118,31.059,64,31.059z"/>
	<path style="fill:#FFC066;" d="M64,42.728c-13.723,0-28.235,22.952-28.235,35.293C35.765,86.697,42.313,90,48,90
		c9.056,0,13.488-11.311,16-23c2.512,11.689,6.943,23,16,23c5.688,0,12.234-3.303,12.234-11.979
		C92.234,65.68,77.723,42.728,64,42.728z"/>
	<path style="fill:#F2B661;" d="M64,42.728V67c2.512,11.689,6.943,23,16,23c5.688,0,12.234-3.303,12.234-11.979
		C92.234,65.68,77.723,42.728,64,42.728z"/>
	<path style="fill:#E6AD5C;" d="M92.232,78.063C92.191,65.707,77.703,42.823,64,42.823c-0.704,0-1.411,0.075-2.117,0.191
		C74.939,45.166,88,66.408,88,78.118c0,6.989-5.291,10.606-9.982,11.684C78.652,89.927,79.313,90,80,90
		C85.68,90,92.212,86.706,92.232,78.063z"/>
	<path style="fill:#242424;" d="M53.097,99.294C56.123,102.134,60.039,104,64,104c3.962,0,7.877-1.866,10.902-4.706H53.097z"/>
	<path style="fill:#E6AD5C;" d="M45.107,89.703C46.073,89.898,47.048,90,48,90c9.056,0,13.488-11.311,16-23
		C61.141,73.673,52.681,87.193,45.107,89.703z"/>
	<path style="fill:#FFD599;" d="M39.765,79.021c-0.553,0-1-0.447-1-1c0-7.601,6.117-19.521,13.635-26.576
		c0.404-0.377,1.036-0.356,1.414,0.045c0.378,0.403,0.357,1.036-0.045,1.414C46.72,59.517,40.765,71.02,40.765,78.021
		C40.765,78.575,40.317,79.021,39.765,79.021z"/>
</g>
</svg>
