<?xml version="1.0" encoding="iso-8859-1"?>
<!-- Generator: Adobe Illustrator 15.0.0, SVG Export Plug-In . SVG Version: 6.00 Build 0)  -->
<!DOCTYPE svg PUBLIC "-//W3C//DTD SVG 1.1//EN" "http://www.w3.org/Graphics/SVG/1.1/DTD/svg11.dtd">
<svg version="1.1" id="Layer_1" xmlns="http://www.w3.org/2000/svg" xmlns:xlink="http://www.w3.org/1999/xlink" x="0px" y="0px"
	 width="128px" height="128px" viewBox="0 0 128 128" style="enable-background:new 0 0 128 128;" xml:space="preserve">
<g>
	<circle style="fill:#B2E3FF;" cx="64" cy="64" r="64"/>
	<path style="fill:#263740;" d="M10.43,99c11.43,17.458,31.146,29,53.57,29s42.143-11.542,53.57-29H10.43z"/>
	<polygon style="fill:#FFF1CC;" points="78.73,99 51,99 44,37 85.949,37 	"/>
	<polygon style="fill:#F2E5C2;" points="81.949,37 74.73,99 78.73,99 85.949,37 	"/>
	<path style="fill:#B3B3B3;" d="M39,35c0,1.1,0.9,2,2,2h48c1.1,0,2-0.9,2-2v-6c0-1.1-0.9-2-2-2H41c-1.1,0-2,0.9-2,2V35z"/>
	<path style="fill:#A6A6A6;" d="M89,27h-2c1.1,0,2,0.9,2,2v6c0,1.1-0.9,2-2,2h2c1.1,0,2-0.9,2-2v-6C91,27.9,90.1,27,89,27z"/>
	<path style="fill:#E6E6E6;" d="M83,27l-1.45-5.077C81.247,20.865,80.1,20,79,20H51c-1.1,0-2.247,0.865-2.55,1.923L47,27H83z"/>
	<path style="fill:#E6E6E6;" d="M83,27l-1.45-5.077C81.247,20.865,80.1,20,79,20H51c-1.1,0-2.247,0.865-2.55,1.923L47,27H83z"/>
	<circle style="fill:#998C6B;" cx="65" cy="65" r="9"/>
	<path style="fill:#998C6B;" d="M65,77.5c-6.893,0-12.5-5.607-12.5-12.5S58.107,52.5,65,52.5c6.893,0,12.5,5.607,12.5,12.5
		S71.893,77.5,65,77.5z M65,54.5c-5.79,0-10.5,4.71-10.5,10.5S59.21,75.5,65,75.5S75.5,70.79,75.5,65S70.79,54.5,65,54.5z"/>
	<polygon style="fill:#F2E5C2;" points="85.717,39 85.949,37 44,37 44.227,39 	"/>
	<polygon style="fill:#CCCCCC;" points="47.285,26 47,27 83,27 82.715,26 	"/>
	<path style="fill:#2D424D;" d="M115.479,102c0.729-0.979,1.426-1.979,2.097-3H10.43c0.668,1.021,1.367,2.021,2.092,3H115.479z"/>
	<path style="opacity:0.4;fill:#F5F5F5;enable-background:new    ;" d="M59.643,0.164c0.187,0.58,0.381,1.147,0.59,1.697
		c1.014,2.714,2.242,5.116,2.977,7.375c0.74,2.28,0.891,4.25-0.027,6.386c-0.394,0.908-0.062,1.987,0.813,2.51
		c0.949,0.567,2.178,0.257,2.744-0.689l0.037-0.063c0.77-1.286,1.363-2.955,1.55-4.583c0.196-1.646,0.052-3.27-0.228-4.751
		c-0.57-2.976-1.517-5.525-2.066-7.967c-0.002-0.009-0.004-0.018-0.006-0.026C65.35,0.03,64.678,0,64,0
		C62.534,0,61.084,0.066,59.643,0.164z"/>
</g>
</svg>
