<?xml version="1.0" encoding="UTF-8" standalone="no"?> <svg id="Layer_1" data-name="Layer 1" xmlns="http://www.w3.org/2000/svg" viewBox="0 0 64 64"><defs><style>.cls-1{fill:#e5e5e5;}.cls-2{fill:#d1d1d1;}.cls-3{fill:#fff;}.cls-4{fill:#844e40;}.cls-5{fill:#5e3128;}.cls-6{fill:#e2a983;}.cls-7{fill:#c46c30;}.cls-8{fill:#35251c;}.cls-9{fill:#a55b28;}</style></defs><title>Small French Press Coffee</title><rect class="cls-1" x="15.39" y="57.55" width="27.22" height="4.99"/><rect class="cls-2" x="31.93" y="57.55" width="10.68" height="5"/><rect class="cls-1" x="15.39" y="20.7" width="27.22" height="5"/><rect class="cls-2" x="31.93" y="20.7" width="10.68" height="5"/><rect class="cls-3" x="17.33" y="25.7" width="23.34" height="31.85"/><rect class="cls-1" x="31.93" y="25.7" width="8.74" height="31.85"/><rect class="cls-4" x="17.33" y="41.15" width="23.34" height="16.4"/><rect class="cls-5" x="31.93" y="41.15" width="8.74" height="16.4"/><circle class="cls-6" cx="29.04" cy="4.89" r="3.27"/><path class="cls-7" d="M35.88,15.25H22.12a5.38,5.38,0,0,0-5.38,5.38v.07H41.26s0,0,0-.07A5.38,5.38,0,0,0,35.88,15.25Z"/><path class="cls-8" d="M51.14,29.87a7.47,7.47,0,0,0-5-1.87h-4v-.8h1.94v-8h-1.5a6.89,6.89,0,0,0-6.73-5.45H30.54V9.39a4.77,4.77,0,1,0-3,0v4.36H22.12a6.88,6.88,0,0,0-6.71,5.45H13.89v8h1.94V56.05H13.89v8H44.11v-8H42.17V55h4.06a7.34,7.34,0,0,0,4.91-1.86,7,7,0,0,0,2-5.2V35.07A7,7,0,0,0,51.14,29.87Zm-23.87-25A1.77,1.77,0,1,1,29,6.66,1.77,1.77,0,0,1,27.27,4.89ZM22.12,16.75H35.88A3.9,3.9,0,0,1,39.5,19.2h-21A3.89,3.89,0,0,1,22.12,16.75ZM16.89,22.2H41.11v2H16.89ZM38.21,39.71v-3H30.54V27.2h8.63V56.05H18.83V27.2h8.71v9.51H19.86v3Zm2.9,21.34H16.89v-2H41.11Zm6.07-13.11A.8.8,0,0,1,46.3,49H42.17V34H46.3a1.35,1.35,0,0,1,.7.22,1.36,1.36,0,0,1,.18.85Z"/><path class="cls-9" d="M49.76,31.32A5.39,5.39,0,0,0,46.17,30h-4v2h4.06a3.3,3.3,0,0,1,2.16.77,3.06,3.06,0,0,1,.8,2.3V47.94a3.06,3.06,0,0,1-.8,2.3,3.3,3.3,0,0,1-2.16.77H42.16v2h4a5.39,5.39,0,0,0,3.59-1.32,5,5,0,0,0,1.42-3.75V35.07A5,5,0,0,0,49.76,31.32Z"/></svg>