<?xml version="1.0" encoding="UTF-8" standalone="no"?> <svg xmlns="http://www.w3.org/2000/svg" xmlns:xlink="http://www.w3.org/1999/xlink" viewBox="0 0 3000 3000">
  <defs>
    <clipPath id="clip-_3">
      <rect width="3000" height="3000"/>
    </clipPath>
  </defs>
  <g id="_3" data-name="3" clip-path="url(#clip-_3)">
    <rect width="3000" height="3000" fill="#fff"/>
    <path id="Union_4" data-name="Union 4" d="M-5664.412,1326.714h-319.912L-6140,0h951.841l-155.636,1326.714Z" transform="translate(7164.5 1154.985)" fill="none" stroke="#000" stroke-linecap="round" stroke-linejoin="round" stroke-width="20"/>
    <rect id="Rectangle_4" data-name="Rectangle 4" width="35" height="1981" rx="8" transform="translate(1223.407 510.789) rotate(-8)" fill="#039625"/>
    <path id="Union_5" data-name="Union 5" d="M-5576.7,92.891H-6140L-6099.679,0h1046.135l40.322,92.891Z" transform="translate(7076.5 1061.625)" fill="#fff" stroke="#000" stroke-linecap="round" stroke-linejoin="round" stroke-width="20"/>
    <g id="Path_16" data-name="Path 16" transform="translate(1198 1358.573)" fill="#039625">
      <path d="M 301.5 602.5 C 281.0772399902344 602.5 260.6673889160156 600.4425659179688 240.8374633789062 596.384765625 C 221.5117645263672 592.43017578125 202.5023803710938 586.529296875 184.3373870849609 578.8461303710938 C 166.5019989013672 571.3023681640625 149.2996978759766 561.96533203125 133.2083892822266 551.09423828125 C 117.2697677612305 540.3262939453125 102.2818450927734 527.9601440429688 88.66084289550781 514.3391723632812 C 75.03984832763672 500.7181396484375 62.67369079589844 485.730224609375 51.90576934814453 469.7916259765625 C 41.03469085693359 453.7003173828125 31.6976146697998 436.4979858398438 24.15384674072266 418.6626281738281 C 16.4706916809082 400.4976196289062 10.56984615325928 381.4882202148438 6.615230560302734 362.1625366210938 C 2.557461500167847 342.3326110839844 0.5 321.9227600097656 0.5 301.5 C 0.5 281.0887756347656 2.557384729385376 260.8674621582031 6.614923000335693 241.3978424072266 C 10.56438446044922 222.4466857910156 16.46453857421875 203.9341583251953 24.1513843536377 186.3743896484375 C 31.67976951599121 169.1766204833984 41.01553726196289 152.6760711669922 51.89930725097656 137.3309936523438 C 62.63846206665039 122.1898498535156 75.00315093994141 108.0053863525391 88.64984893798828 95.17153930664062 C 102.2286911010742 82.40153503417969 117.2156143188477 70.83784484863281 133.1944580078125 60.80161666870117 C 149.2335357666016 50.72746276855469 166.4360046386719 42.08961486816406 184.3239288330078 35.12807846069336 C 202.4321594238281 28.08076858520508 221.4431610107422 22.67415428161621 240.8289184570312 19.05830764770508 C 260.6030883789062 15.37007713317871 281.0157775878906 13.5 301.5 13.5 C 321.9842224121094 13.5 342.3969116210938 15.37007713317871 362.1710815429688 19.05830764770508 C 381.5568542480469 22.67415428161621 400.5678405761719 28.08076858520508 418.6760864257812 35.12807846069336 C 436.5639953613281 42.08961486816406 453.7664489746094 50.72746276855469 469.8055419921875 60.80161666870117 C 485.7843933105469 70.83784484863281 500.7713012695312 82.40153503417969 514.3501586914062 95.17153930664062 C 527.996826171875 108.0053863525391 540.3615112304688 122.1898498535156 551.1007080078125 137.3309936523438 C 561.9844360351562 152.6760711669922 571.3202514648438 169.1766204833984 578.8486328125 186.3743896484375 C 586.5354614257812 203.9341583251953 592.4356079101562 222.4466857910156 596.3850708007812 241.3978424072266 C 600.442626953125 260.8674621582031 602.5 281.0887756347656 602.5 301.5 C 602.5 321.9227600097656 600.4425659179688 342.3326110839844 596.384765625 362.1625366210938 C 592.43017578125 381.4882202148438 586.529296875 400.4976196289062 578.8461303710938 418.6626281738281 C 571.3023681640625 436.4979858398438 561.96533203125 453.7003173828125 551.09423828125 469.7916259765625 C 540.3262939453125 485.730224609375 527.9601440429688 500.7181396484375 514.3391723632812 514.3391723632812 C 500.7181396484375 527.9601440429688 485.730224609375 540.3262939453125 469.7916259765625 551.09423828125 C 453.7003173828125 561.96533203125 436.4979858398438 571.3023681640625 418.6626281738281 578.8461303710938 C 400.4976196289062 586.529296875 381.4882202148438 592.43017578125 362.1625366210938 596.384765625 C 342.3326110839844 600.4425659179688 321.9227600097656 602.5 301.5 602.5 Z" stroke="none"/>
      <path d="M 301.5 14 C 281.0464477539062 14 260.6646118164062 15.86724853515625 240.9206237792969 19.54986572265625 C 221.5653991699219 23.159912109375 202.5845336914062 28.5579833984375 184.5053100585938 35.593994140625 C 166.6467590332031 42.54412841796875 149.4727783203125 51.16766357421875 133.4603881835938 61.2249755859375 C 117.5089111328125 71.24407958984375 102.5476989746094 82.78790283203125 88.99237060546875 95.5357666015625 C 75.3697509765625 108.346923828125 63.027099609375 122.5061645507812 52.30712890625 137.6203002929688 C 41.44305419921875 152.9376220703125 32.1241455078125 169.4082946777344 24.60943603515625 186.5748596191406 C 16.9364013671875 204.1030883789062 11.046875 222.5824584960938 7.1043701171875 241.4998474121094 C 3.0538330078125 260.9360046386719 1 281.1229248046875 1 301.5 C 1 321.8892211914062 3.0540771484375 342.2653198242188 7.1051025390625 362.0623168945312 C 11.0531005859375 381.3556213378906 16.944091796875 400.333251953125 24.6143798828125 418.4678344726562 C 32.14556884765625 436.2734680175781 41.46710205078125 453.4471435546875 52.320068359375 469.5116882324219 C 63.07012939453125 485.4239196777344 75.4158935546875 500.3870849609375 89.014404296875 513.985595703125 C 102.6129150390625 527.5841064453125 117.5760803222656 539.9298706054688 133.4883117675781 550.679931640625 C 149.5528564453125 561.5328979492188 166.7265319824219 570.8544921875 184.5321655273438 578.3856201171875 C 202.6667785644531 586.055908203125 221.6443786621094 591.9468994140625 240.9376831054688 595.8948974609375 C 260.7346801757812 599.9459228515625 281.1107788085938 602 301.5 602 C 321.8892211914062 602 342.2653198242188 599.9459228515625 362.0623168945312 595.8948974609375 C 381.3556213378906 591.9468994140625 400.333251953125 586.055908203125 418.4678344726562 578.3856201171875 C 436.2734680175781 570.8544921875 453.4471435546875 561.5328979492188 469.5116882324219 550.679931640625 C 485.4239196777344 539.9298706054688 500.3870849609375 527.5841064453125 513.985595703125 513.985595703125 C 527.5841064453125 500.3870849609375 539.9298706054688 485.4239196777344 550.679931640625 469.5116882324219 C 561.5328979492188 453.4471435546875 570.8544921875 436.2734680175781 578.3856201171875 418.4678344726562 C 586.055908203125 400.333251953125 591.9468994140625 381.3556213378906 595.8948974609375 362.0623168945312 C 599.9459228515625 342.2653198242188 602 321.8892211914062 602 301.5 C 602 281.1229248046875 599.9461669921875 260.9360046386719 595.8956298828125 241.4998474121094 C 591.953125 222.5824584960938 586.0635986328125 204.1030883789062 578.3905639648438 186.5748596191406 C 570.8758544921875 169.4082946777344 561.5569458007812 152.9376220703125 550.69287109375 137.6203002929688 C 539.972900390625 122.5061645507812 527.6302490234375 108.346923828125 514.0076293945312 95.5357666015625 C 500.4523010253906 82.78790283203125 485.4910888671875 71.24407958984375 469.5396118164062 61.2249755859375 C 453.5272216796875 51.16766357421875 436.3532104492188 42.54412841796875 418.4946899414062 35.593994140625 C 400.4154663085938 28.5579833984375 381.4346313476562 23.159912109375 362.0794067382812 19.54986572265625 C 342.3353881835938 15.86724853515625 321.9535522460938 14 301.5 14 M 301.5 13 C 468.0138549804688 13 603 134.9861450195312 603 301.5 C 603 468.0138549804688 468.0138549804688 603 301.5 603 C 134.9861450195312 603 0 468.0138549804688 0 301.5 C 0 134.9861450195312 134.9861450195312 13 301.5 13 Z" stroke="none" fill="#707070"/>
    </g>
    <path id="Path_23" data-name="Path 23" d="M7298.776,2257.834h675.816l-22.3,213.8H7325.542Z" transform="translate(-6137.014 0.709)" fill="#836411"/>
  </g>
</svg>
