<?xml version="1.0" encoding="UTF-8" standalone="no"?> <svg xmlns="http://www.w3.org/2000/svg" xmlns:xlink="http://www.w3.org/1999/xlink" viewBox="0 0 3000 3000">
  <defs>
    <filter id="Union_7" x="805.5" y="801" width="1390.264" height="627.001" filterUnits="userSpaceOnUse">
      <feOffset dy="3" input="SourceAlpha"/>
      <feGaussianBlur stdDeviation="3" result="blur"/>
      <feFlood flood-opacity="0.161"/>
      <feComposite operator="in" in2="blur"/>
      <feComposite in="SourceGraphic"/>
    </filter>
    <filter id="Path_29" x="804.637" y="907.007" width="1036.932" height="417.378" filterUnits="userSpaceOnUse">
      <feOffset dy="3" input="SourceAlpha"/>
      <feGaussianBlur stdDeviation="3" result="blur-2"/>
      <feFlood flood-opacity="0.161"/>
      <feComposite operator="in" in2="blur-2"/>
      <feComposite in="SourceGraphic"/>
    </filter>
    <filter id="Path_50" x="1159.007" y="969.005" width="1036.934" height="417.38" filterUnits="userSpaceOnUse">
      <feOffset dy="3" input="SourceAlpha"/>
      <feGaussianBlur stdDeviation="3" result="blur-3"/>
      <feFlood flood-opacity="0.161"/>
      <feComposite operator="in" in2="blur-3"/>
      <feComposite in="SourceGraphic"/>
    </filter>
    <filter id="Ellipse_5" x="1596.773" y="895" width="36" height="38" filterUnits="userSpaceOnUse">
      <feOffset dy="1" input="SourceAlpha"/>
      <feGaussianBlur stdDeviation="1" result="blur-4"/>
      <feFlood flood-opacity="0.161"/>
      <feComposite operator="in" in2="blur-4"/>
      <feComposite in="SourceGraphic"/>
    </filter>
    <filter id="Ellipse_6" x="963.703" y="1173" width="36" height="37" filterUnits="userSpaceOnUse">
      <feOffset dy="1" input="SourceAlpha"/>
      <feGaussianBlur stdDeviation="1" result="blur-5"/>
      <feFlood flood-opacity="0.161"/>
      <feComposite operator="in" in2="blur-5"/>
      <feComposite in="SourceGraphic"/>
    </filter>
    <filter id="Ellipse_14" x="1347.877" y="861" width="65" height="68" filterUnits="userSpaceOnUse">
      <feOffset dy="1" input="SourceAlpha"/>
      <feGaussianBlur stdDeviation="1" result="blur-6"/>
      <feFlood flood-opacity="0.161"/>
      <feComposite operator="in" in2="blur-6"/>
      <feComposite in="SourceGraphic"/>
    </filter>
    <filter id="Ellipse_16" x="2064.645" y="1225" width="36" height="37" filterUnits="userSpaceOnUse">
      <feOffset dy="1" input="SourceAlpha"/>
      <feGaussianBlur stdDeviation="1" result="blur-7"/>
      <feFlood flood-opacity="0.161"/>
      <feComposite operator="in" in2="blur-7"/>
      <feComposite in="SourceGraphic"/>
    </filter>
    <filter id="Ellipse_22" x="1080.221" y="1225" width="36" height="37" filterUnits="userSpaceOnUse">
      <feOffset dy="1" input="SourceAlpha"/>
      <feGaussianBlur stdDeviation="1" result="blur-8"/>
      <feFlood flood-opacity="0.161"/>
      <feComposite operator="in" in2="blur-8"/>
      <feComposite in="SourceGraphic"/>
    </filter>
    <filter id="Ellipse_41" x="1483.877" y="1049" width="65" height="68" filterUnits="userSpaceOnUse">
      <feOffset dy="1" input="SourceAlpha"/>
      <feGaussianBlur stdDeviation="1" result="blur-9"/>
      <feFlood flood-opacity="0.161"/>
      <feComposite operator="in" in2="blur-9"/>
      <feComposite in="SourceGraphic"/>
    </filter>
    <filter id="Ellipse_42" x="1829.703" y="968" width="36" height="37" filterUnits="userSpaceOnUse">
      <feOffset dy="1" input="SourceAlpha"/>
      <feGaussianBlur stdDeviation="1" result="blur-10"/>
      <feFlood flood-opacity="0.161"/>
      <feComposite operator="in" in2="blur-10"/>
      <feComposite in="SourceGraphic"/>
    </filter>
    <filter id="Ellipse_43" x="837.703" y="1142" width="36" height="37" filterUnits="userSpaceOnUse">
      <feOffset dy="1" input="SourceAlpha"/>
      <feGaussianBlur stdDeviation="1" result="blur-11"/>
      <feFlood flood-opacity="0.161"/>
      <feComposite operator="in" in2="blur-11"/>
      <feComposite in="SourceGraphic"/>
    </filter>
    <filter id="Ellipse_44" x="1103.703" y="953" width="36" height="37" filterUnits="userSpaceOnUse">
      <feOffset dy="1" input="SourceAlpha"/>
      <feGaussianBlur stdDeviation="1" result="blur-12"/>
      <feFlood flood-opacity="0.161"/>
      <feComposite operator="in" in2="blur-12"/>
      <feComposite in="SourceGraphic"/>
    </filter>
    <filter id="Ellipse_45" x="1289.703" y="1084" width="36" height="37" filterUnits="userSpaceOnUse">
      <feOffset dy="1" input="SourceAlpha"/>
      <feGaussianBlur stdDeviation="1" result="blur-13"/>
      <feFlood flood-opacity="0.161"/>
      <feComposite operator="in" in2="blur-13"/>
      <feComposite in="SourceGraphic"/>
    </filter>
    <filter id="Ellipse_46" x="1943.703" y="1095" width="36" height="37" filterUnits="userSpaceOnUse">
      <feOffset dy="1" input="SourceAlpha"/>
      <feGaussianBlur stdDeviation="1" result="blur-14"/>
      <feFlood flood-opacity="0.161"/>
      <feComposite operator="in" in2="blur-14"/>
      <feComposite in="SourceGraphic"/>
    </filter>
    <clipPath id="clip-_2">
      <rect width="3000" height="3000"/>
    </clipPath>
  </defs>
  <g id="_2" data-name="2" clip-path="url(#clip-_2)">
    <rect width="3000" height="3000" fill="#fff"/>
    <g id="Group_2" data-name="Group 2">
      <path id="Path_14" data-name="Path 14" d="M0,0H57V586H0Z" transform="translate(1556 245)" fill="#039625"/>
      <path id="Union_2" data-name="Union 2" d="M-2520.593,1318.713h-449.457L-3070,0h1101.811l-99.949,1318.713Z" transform="translate(4019.5 1320.12)" fill="#fff" stroke="#000" stroke-linecap="round" stroke-linejoin="bevel" stroke-width="20"/>
      <g transform="matrix(1, 0, 0, 1, 0, 0)" filter="url(#Union_7)">
        <g id="Union_7-2" data-name="Union 7" transform="translate(16164.5 807)" fill="#fff">
          <path d="M -14982.9306640625 608.5013427734375 C -15007.8134765625 608.5013427734375 -15032.6796875 606.8213500976562 -15056.8388671875 603.5081787109375 C -15080.3837890625 600.2791748046875 -15103.54296875 595.4613647460938 -15125.6728515625 589.1883544921875 C -15147.3994140625 583.0297241210938 -15168.3544921875 575.4072265625 -15187.955078125 566.53271484375 C -15207.3671875 557.7437133789062 -15225.62109375 547.6505126953125 -15242.208984375 536.53369140625 C -15258.79296875 525.4193725585938 -15273.8486328125 513.1903686523438 -15286.9580078125 500.1863708496094 C -15300.1884765625 487.0617065429688 -15311.55078125 473.0321960449219 -15320.73046875 458.4873657226562 C -15330.0771484375 443.6788635253906 -15337.25390625 428.1831970214844 -15342.064453125 412.4308776855469 C -15344.5087890625 404.4247131347656 -15346.375 396.230712890625 -15347.6103515625 388.0760498046875 C -15348.8642578125 379.8022155761719 -15349.5 371.3648681640625 -15349.5 362.99853515625 C -15349.5 354.6323547363281 -15348.8642578125 346.1953735351562 -15347.6103515625 337.9216918945312 C -15346.375 329.7673645019531 -15344.5087890625 321.5733642578125 -15342.064453125 313.5675354003906 C -15337.25390625 297.8155212402344 -15330.0771484375 282.3201904296875 -15320.73046875 267.5118713378906 C -15311.55078125 252.9673614501953 -15300.1884765625 238.9380340576172 -15286.9580078125 225.8135375976562 C -15273.8486328125 212.8098754882812 -15258.79296875 200.5810394287109 -15242.208984375 189.4667053222656 C -15225.62109375 178.3500366210938 -15207.3671875 168.2570343017578 -15187.955078125 159.4680328369141 C -15168.3544921875 150.5935363769531 -15147.3994140625 142.9712066650391 -15125.6728515625 136.8125305175781 C -15103.54296875 130.5395355224609 -15080.3837890625 125.7217025756836 -15056.8388671875 122.4926986694336 C -15032.6796875 119.1795349121094 -15007.8134765625 117.4995346069336 -14982.9306640625 117.4995346069336 C -14948.30078125 117.4995346069336 -14914.029296875 120.7310333251953 -14881.068359375 127.1040344238281 L -14880.7783203125 127.1602020263672 L -14880.5888671875 126.9327011108398 C -14864.8193359375 107.9440383911133 -14846.185546875 90.48186492919922 -14825.20703125 75.03153228759766 C -14804.1669921875 59.53653335571289 -14780.8359375 46.11553573608398 -14755.8623046875 35.14120101928711 C -14730.4482421875 23.97403526306152 -14703.3701171875 15.36020183563232 -14675.3798828125 9.539201736450195 C -14646.5390625 3.541201829910278 -14616.6650390625 0.5000352263450623 -14586.5888671875 0.5000352263450623 C -14545.294921875 0.5000352263450623 -14504.8505859375 6.170201778411865 -14466.37890625 17.35286903381348 C -14447.8134765625 22.74920272827148 -14429.6767578125 29.46303558349609 -14412.4716796875 37.30786895751953 C -14395.46484375 45.06253433227539 -14379.1318359375 54.02986907958984 -14363.9267578125 63.96036911010742 C -14348.791015625 73.84553527832031 -14334.572265625 84.81636810302734 -14321.6630859375 96.56853485107422 C -14308.720703125 108.3516998291016 -14296.9248046875 121.0766983032227 -14286.6025390625 134.3898620605469 C -14276.1796875 147.8330383300781 -14267.1162109375 162.0623626708984 -14259.6630859375 176.6825408935547 C -14252.087890625 191.5417022705078 -14246.064453125 207.0265350341797 -14241.7607421875 222.7065277099609 L -14241.6533203125 223.0966949462891 L -14241.2490234375 223.0733642578125 C -14234.646484375 222.6921997070312 -14227.92578125 222.4988708496094 -14221.275390625 222.4988708496094 C -14204.775390625 222.4988708496094 -14188.287109375 223.6797027587891 -14172.2666015625 226.0083618164062 C -14156.654296875 228.2778625488281 -14141.2978515625 231.6640319824219 -14126.6240234375 236.0730285644531 C -14112.2177734375 240.4013671875 -14098.32421875 245.7585296630859 -14085.328125 251.9955291748047 C -14072.4580078125 258.1722106933594 -14060.35546875 265.2650451660156 -14049.357421875 273.0773620605469 C -14038.36328125 280.8873596191406 -14028.3828125 289.4805297851562 -14019.6923828125 298.6180419921875 C -14010.921875 307.8396911621094 -14003.3896484375 317.6968688964844 -13997.3046875 327.9158630371094 C -13991.1103515625 338.3197021484375 -13986.3525390625 349.2060241699219 -13983.1650390625 360.2725219726562 C -13979.89453125 371.6248779296875 -13978.236328125 383.3088684082031 -13978.236328125 394.9998779296875 C -13978.236328125 406.6908569335938 -13979.89453125 418.3748779296875 -13983.1650390625 429.7272033691406 C -13986.3525390625 440.793701171875 -13991.1103515625 451.6800231933594 -13997.3046875 462.0838623046875 C -14003.3896484375 472.3028564453125 -14010.921875 482.1601867675781 -14019.6923828125 491.3818664550781 C -14028.3828125 500.5191955566406 -14038.36328125 509.1123657226562 -14049.357421875 516.92236328125 C -14060.35546875 524.7346801757812 -14072.4580078125 531.8276977539062 -14085.328125 538.0042114257812 C -14098.32421875 544.2412109375 -14112.2177734375 549.598388671875 -14126.6240234375 553.9266967773438 C -14141.2978515625 558.335693359375 -14156.654296875 561.7218627929688 -14172.2666015625 563.9913940429688 C -14188.287109375 566.3200073242188 -14204.775390625 567.5008544921875 -14221.275390625 567.5008544921875 C -14237.314453125 567.5008544921875 -14253.3525390625 566.3847045898438 -14268.9453125 564.183349609375 C -14284.1484375 562.036865234375 -14299.1259765625 558.8317260742188 -14313.4619140625 554.6566772460938 C -14327.537109375 550.5576782226562 -14341.1513671875 545.478515625 -14353.9267578125 539.560546875 C -14366.5712890625 533.7026977539062 -14378.51953125 526.9655151367188 -14389.4384765625 519.5361938476562 L -14389.689453125 519.3651733398438 L -14389.95703125 519.509521484375 C -14418.423828125 534.8616943359375 -14449.408203125 546.759033203125 -14482.048828125 554.8707275390625 C -14515.7724609375 563.2515258789062 -14550.9443359375 567.5008544921875 -14586.5888671875 567.5008544921875 C -14612.095703125 567.5008544921875 -14637.5478515625 565.3067016601562 -14662.2392578125 560.9793701171875 C -14686.2744140625 556.7670288085938 -14709.8251953125 550.4937133789062 -14732.2392578125 542.3335571289062 L -14732.46875 542.2500610351562 L -14732.67578125 542.3795166015625 C -14749.0634765625 552.6393432617188 -14766.9384765625 561.9365234375 -14785.8046875 570.0126953125 C -14804.869140625 578.1737060546875 -14825.1494140625 585.1743774414062 -14846.0810546875 590.8201904296875 C -14867.3994140625 596.5701904296875 -14889.6513671875 600.9835205078125 -14912.21875 603.9373779296875 C -14935.35546875 606.9658813476562 -14959.146484375 608.5013427734375 -14982.9306640625 608.5013427734375 Z" stroke="none"/>
          <path d="M -14982.9306640625 608.0013427734375 C -14959.16796875 608.0013427734375 -14935.3984375 606.4672241210938 -14912.283203125 603.4415283203125 C -14889.73828125 600.4905395507812 -14867.5078125 596.0817260742188 -14846.2109375 590.3373413085938 C -14825.3017578125 584.6976928710938 -14805.0439453125 577.7048950195312 -14786.001953125 569.55322265625 C -14767.158203125 561.487060546875 -14749.306640625 552.2020263671875 -14732.9404296875 541.9556884765625 L -14732.52734375 541.6967163085938 L -14732.068359375 541.8637084960938 C -14709.681640625 550.0138549804688 -14686.1591796875 556.279541015625 -14662.15234375 560.4868774414062 C -14637.490234375 564.8092041015625 -14612.06640625 567.0008544921875 -14586.5888671875 567.0008544921875 C -14550.9853515625 567.0008544921875 -14515.853515625 562.75634765625 -14482.169921875 554.3855590820312 C -14449.5693359375 546.2838745117188 -14418.6240234375 534.4016723632812 -14390.1943359375 519.0693969726562 L -14389.6591796875 518.7808837890625 L -14389.1572265625 519.1226806640625 C -14378.2607421875 526.536865234375 -14366.3369140625 533.2605590820312 -14353.7158203125 539.1068725585938 C -14340.9638671875 545.0143432617188 -14327.373046875 550.0845336914062 -14313.322265625 554.176513671875 C -14299.009765625 558.3450317382812 -14284.0556640625 561.5452270507812 -14268.8759765625 563.688232421875 C -14253.306640625 565.8863525390625 -14237.291015625 567.0008544921875 -14221.275390625 567.0008544921875 C -14204.7998046875 567.0008544921875 -14188.3349609375 565.8218383789062 -14172.337890625 563.4965209960938 C -14156.7509765625 561.2305297851562 -14141.41796875 557.8497314453125 -14126.767578125 553.4478759765625 C -14112.38671875 549.1270141601562 -14098.517578125 543.7793579101562 -14085.5439453125 537.5535278320312 C -14072.69921875 531.3890380859375 -14060.6220703125 524.3107299804688 -14049.6474609375 516.514892578125 C -14038.6787109375 508.7233581542969 -14028.72265625 500.1513671875 -14020.0546875 491.0372009277344 C -14011.3095703125 481.842529296875 -14003.7998046875 472.0151977539062 -13997.734375 461.8280334472656 C -13991.5615234375 451.4610290527344 -13986.8212890625 440.6141967773438 -13983.6455078125 429.5888671875 C -13980.3876953125 418.2815246582031 -13978.736328125 406.64404296875 -13978.736328125 394.9998779296875 C -13978.736328125 383.355712890625 -13980.3876953125 371.7183837890625 -13983.6455078125 360.4110412597656 C -13986.8212890625 349.3855285644531 -13991.5615234375 338.5386962890625 -13997.734375 328.1716918945312 C -14003.7998046875 317.9847106933594 -14011.3095703125 308.1571960449219 -14020.0546875 298.9625244140625 C -14028.72265625 289.8483581542969 -14038.6787109375 281.2765502929688 -14049.6474609375 273.4850463867188 C -14060.6220703125 265.689208984375 -14072.69921875 258.6106872558594 -14085.5439453125 252.4463653564453 C -14098.517578125 246.2205352783203 -14112.38671875 240.8728637695312 -14126.767578125 236.5518646240234 C -14141.41796875 232.1500396728516 -14156.7509765625 228.7691955566406 -14172.337890625 226.5032043457031 C -14188.3349609375 224.1778717041016 -14204.7998046875 222.9988708496094 -14221.275390625 222.9988708496094 C -14227.916015625 222.9988708496094 -14234.626953125 223.1918640136719 -14241.220703125 223.5725402832031 L -14242.0283203125 223.6192016601562 L -14242.2421875 222.8388671875 C -14246.5380859375 207.1915283203125 -14252.548828125 191.7387084960938 -14260.1083984375 176.9096984863281 C -14267.546875 162.3173675537109 -14276.59375 148.1147003173828 -14286.998046875 134.6961975097656 C -14297.302734375 121.4057006835938 -14309.0791015625 108.702033996582 -14322 96.93820190429688 C -14334.888671875 85.20403289794922 -14349.0869140625 74.24953460693359 -14364.2001953125 64.37903594970703 C -14379.384765625 54.46220016479492 -14395.6953125 45.5072021484375 -14412.6796875 37.76286697387695 C -14429.8623046875 29.92803573608398 -14447.9765625 23.22270202636719 -14466.517578125 17.83303451538086 C -14504.9443359375 6.663535118103027 -14545.341796875 1.000035285949707 -14586.5888671875 1.000035285949707 C -14616.630859375 1.000035285949707 -14646.470703125 4.037702083587646 -14675.2783203125 10.02870178222656 C -14703.234375 15.84270191192627 -14730.279296875 24.44570159912109 -14755.6611328125 35.59903335571289 C -14780.6015625 46.55836868286133 -14803.900390625 59.96086883544922 -14824.91015625 75.43403625488281 C -14845.8564453125 90.86053466796875 -14864.4599609375 108.2945327758789 -14880.2041015625 127.2520370483398 L -14880.58203125 127.7073669433594 L -14881.1630859375 127.5950317382812 C -14914.09375 121.2278671264648 -14948.3330078125 117.9995346069336 -14982.9306640625 117.9995346069336 C -15007.7900390625 117.9995346069336 -15032.6337890625 119.6778717041016 -15056.771484375 122.9882049560547 C -15080.29296875 126.2138671875 -15103.4296875 131.0268707275391 -15125.537109375 137.2935333251953 C -15147.2392578125 143.4453735351562 -15168.1708984375 151.0592041015625 -15187.7490234375 159.9235382080078 C -15207.1357421875 168.7012023925781 -15225.365234375 178.7807006835938 -15241.9306640625 189.8820343017578 C -15258.48828125 200.9786987304688 -15273.51953125 213.1871948242188 -15286.60546875 226.1685333251953 C -15299.8095703125 239.2663726806641 -15311.1484375 253.2662048339844 -15320.3076171875 267.7787170410156 C -15329.6298828125 282.5495300292969 -15336.7890625 298.0042114257812 -15341.5859375 313.7135314941406 C -15344.0234375 321.6961975097656 -15345.8837890625 329.8662109375 -15347.1162109375 337.9965209960938 C -15348.3662109375 346.2455444335938 -15349 354.6573791503906 -15349 362.99853515625 C -15349 371.3398742675781 -15348.3662109375 379.7520446777344 -15347.1162109375 388.0011901855469 C -15345.8837890625 396.1317138671875 -15344.0234375 404.3020324707031 -15341.5859375 412.2848815917969 C -15336.7890625 427.9945373535156 -15329.6298828125 443.4495239257812 -15320.3076171875 458.2205200195312 C -15311.1484375 472.7333679199219 -15299.8095703125 486.7333679199219 -15286.60546875 499.8313598632812 C -15273.51953125 512.8128662109375 -15258.48828125 525.021728515625 -15241.9306640625 536.1183471679688 C -15225.365234375 547.2198486328125 -15207.1357421875 557.299560546875 -15187.7490234375 566.0772094726562 C -15168.1708984375 574.9415283203125 -15147.2392578125 582.5553588867188 -15125.537109375 588.7072143554688 C -15103.4296875 594.973876953125 -15080.29296875 599.7870483398438 -15056.771484375 603.0126953125 C -15032.6337890625 606.3230590820312 -15007.7900390625 608.0013427734375 -14982.9306640625 608.0013427734375 M -14982.9306640625 609.0013427734375 C -15185.6552734375 609.0013427734375 -15350 498.8628540039062 -15350 362.99853515625 C -15350 227.1380310058594 -15185.6552734375 116.9995346069336 -14982.9306640625 116.9995346069336 C -14947.5537109375 116.9995346069336 -14913.34375 120.3543701171875 -14880.9736328125 126.6132049560547 C -14817.583984375 50.28487014770508 -14709.396484375 3.523763007251546e-05 -14586.5888671875 3.523763007251546e-05 C -14417.5576171875 3.523763007251546e-05 -14276.228515625 95.25337219238281 -14241.2783203125 222.5742034912109 C -14234.6845703125 222.1935424804688 -14228.0078125 221.9988708496094 -14221.275390625 221.9988708496094 C -14086.775390625 221.9988708496094 -13977.736328125 299.4541931152344 -13977.736328125 394.9998779296875 C -13977.736328125 490.5457153320312 -14086.775390625 568.0008544921875 -14221.275390625 568.0008544921875 C -14286.6318359375 568.0008544921875 -14345.9755859375 549.7135620117188 -14389.7197265625 519.9495239257812 C -14445.9931640625 550.2982177734375 -14513.712890625 568.0008544921875 -14586.5888671875 568.0008544921875 C -14638.5830078125 568.0008544921875 -14687.951171875 558.9895629882812 -14732.41015625 542.8033447265625 C -14798.005859375 583.8715209960938 -14886.0830078125 609.0013427734375 -14982.9306640625 609.0013427734375 Z" stroke="none" fill="#f2f2f2"/>
        </g>
      </g>
      <path id="shadow" d="M4946.748,1420l-68.732,1207.615h133.833L5104.8,1420Z" transform="translate(-3070)" fill="#f4f4f4"/>
      <g id="Rectangle_3" data-name="Rectangle 3" transform="translate(756 1282)" fill="#fff" stroke="#000" stroke-linecap="round" stroke-linejoin="bevel" stroke-width="20">
        <rect width="1488" height="138" rx="69" stroke="none"/>
        <rect x="10" y="10" width="1468" height="118" rx="59" fill="none"/>
      </g>
      <path id="Path_15" data-name="Path 15" d="M5099.73,1292.172l-50.708,94.394,190.126,3.906s26.514-2.919,39.839-13.866c8.115-6.667,12.4-12.547,13.461-17.707.584-2.838-1.711-2.148,0-12.216,4.377-25.748-5.224-32.922-18.549-46.549s-34.752-7.962-34.752-7.962H5107.6" transform="translate(-3070 10.248)" fill="#f4f4f4"/>
      <g id="Path_16" data-name="Path 16" transform="translate(1199 1612.573)" fill="#039625">
        <path d="M 301.5 602.5 C 281.0772399902344 602.5 260.6673889160156 600.4425659179688 240.8374633789062 596.384765625 C 221.5117645263672 592.43017578125 202.5023803710938 586.529296875 184.3373870849609 578.8461303710938 C 166.5019989013672 571.3023681640625 149.2996978759766 561.96533203125 133.2083892822266 551.09423828125 C 117.2697677612305 540.3262939453125 102.2818450927734 527.9601440429688 88.66084289550781 514.3391723632812 C 75.03984832763672 500.7181396484375 62.67369079589844 485.730224609375 51.90576934814453 469.7916259765625 C 41.03469085693359 453.7003173828125 31.6976146697998 436.4979858398438 24.15384674072266 418.6626281738281 C 16.4706916809082 400.4976196289062 10.56984615325928 381.4882202148438 6.615230560302734 362.1625366210938 C 2.557461500167847 342.3326110839844 0.5 321.9227600097656 0.5 301.5 C 0.5 281.0887756347656 2.557384729385376 260.8674621582031 6.614923000335693 241.3978424072266 C 10.56438446044922 222.4466857910156 16.46453857421875 203.9341583251953 24.1513843536377 186.3743896484375 C 31.67976951599121 169.1766204833984 41.01553726196289 152.6760711669922 51.89930725097656 137.3309936523438 C 62.63846206665039 122.1898498535156 75.00315093994141 108.0053863525391 88.64984893798828 95.17153930664062 C 102.2286911010742 82.40153503417969 117.2156143188477 70.83784484863281 133.1944580078125 60.80161666870117 C 149.2335357666016 50.72746276855469 166.4360046386719 42.08961486816406 184.3239288330078 35.12807846069336 C 202.4321594238281 28.08076858520508 221.4431610107422 22.67415428161621 240.8289184570312 19.05830764770508 C 260.6030883789062 15.37007713317871 281.0157775878906 13.5 301.5 13.5 C 321.9842224121094 13.5 342.3969116210938 15.37007713317871 362.1710815429688 19.05830764770508 C 381.5568542480469 22.67415428161621 400.5678405761719 28.08076858520508 418.6760864257812 35.12807846069336 C 436.5639953613281 42.08961486816406 453.7664489746094 50.72746276855469 469.8055419921875 60.80161666870117 C 485.7843933105469 70.83784484863281 500.7713012695312 82.40153503417969 514.3501586914062 95.17153930664062 C 527.996826171875 108.0053863525391 540.3615112304688 122.1898498535156 551.1007080078125 137.3309936523438 C 561.9844360351562 152.6760711669922 571.3202514648438 169.1766204833984 578.8486328125 186.3743896484375 C 586.5354614257812 203.9341583251953 592.4356079101562 222.4466857910156 596.3850708007812 241.3978424072266 C 600.442626953125 260.8674621582031 602.5 281.0887756347656 602.5 301.5 C 602.5 321.9227600097656 600.4425659179688 342.3326110839844 596.384765625 362.1625366210938 C 592.43017578125 381.4882202148438 586.529296875 400.4976196289062 578.8461303710938 418.6626281738281 C 571.3023681640625 436.4979858398438 561.96533203125 453.7003173828125 551.09423828125 469.7916259765625 C 540.3262939453125 485.730224609375 527.9601440429688 500.7181396484375 514.3391723632812 514.3391723632812 C 500.7181396484375 527.9601440429688 485.730224609375 540.3262939453125 469.7916259765625 551.09423828125 C 453.7003173828125 561.96533203125 436.4979858398438 571.3023681640625 418.6626281738281 578.8461303710938 C 400.4976196289062 586.529296875 381.4882202148438 592.43017578125 362.1625366210938 596.384765625 C 342.3326110839844 600.4425659179688 321.9227600097656 602.5 301.5 602.5 Z" stroke="none"/>
        <path d="M 301.5 14 C 281.0464477539062 14 260.6646118164062 15.86724853515625 240.9206237792969 19.54986572265625 C 221.5653991699219 23.159912109375 202.5845336914062 28.5579833984375 184.5053100585938 35.593994140625 C 166.6467590332031 42.54412841796875 149.4727783203125 51.16766357421875 133.4603881835938 61.2249755859375 C 117.5089111328125 71.24407958984375 102.5476989746094 82.78790283203125 88.99237060546875 95.5357666015625 C 75.3697509765625 108.346923828125 63.027099609375 122.5061645507812 52.30712890625 137.6203002929688 C 41.44305419921875 152.9376220703125 32.1241455078125 169.4082946777344 24.60943603515625 186.5748596191406 C 16.9364013671875 204.1030883789062 11.046875 222.5824584960938 7.1043701171875 241.4998474121094 C 3.0538330078125 260.9360046386719 1 281.1229248046875 1 301.5 C 1 321.8892211914062 3.0540771484375 342.2653198242188 7.1051025390625 362.0623168945312 C 11.0531005859375 381.3556213378906 16.944091796875 400.333251953125 24.6143798828125 418.4678344726562 C 32.14556884765625 436.2734680175781 41.46710205078125 453.4471435546875 52.320068359375 469.5116882324219 C 63.07012939453125 485.4239196777344 75.4158935546875 500.3870849609375 89.014404296875 513.985595703125 C 102.6129150390625 527.5841064453125 117.5760803222656 539.9298706054688 133.4883117675781 550.679931640625 C 149.5528564453125 561.5328979492188 166.7265319824219 570.8544921875 184.5321655273438 578.3856201171875 C 202.6667785644531 586.055908203125 221.6443786621094 591.9468994140625 240.9376831054688 595.8948974609375 C 260.7346801757812 599.9459228515625 281.1107788085938 602 301.5 602 C 321.8892211914062 602 342.2653198242188 599.9459228515625 362.0623168945312 595.8948974609375 C 381.3556213378906 591.9468994140625 400.333251953125 586.055908203125 418.4678344726562 578.3856201171875 C 436.2734680175781 570.8544921875 453.4471435546875 561.5328979492188 469.5116882324219 550.679931640625 C 485.4239196777344 539.9298706054688 500.3870849609375 527.5841064453125 513.985595703125 513.985595703125 C 527.5841064453125 500.3870849609375 539.9298706054688 485.4239196777344 550.679931640625 469.5116882324219 C 561.5328979492188 453.4471435546875 570.8544921875 436.2734680175781 578.3856201171875 418.4678344726562 C 586.055908203125 400.333251953125 591.9468994140625 381.3556213378906 595.8948974609375 362.0623168945312 C 599.9459228515625 342.2653198242188 602 321.8892211914062 602 301.5 C 602 281.1229248046875 599.9461669921875 260.9360046386719 595.8956298828125 241.4998474121094 C 591.953125 222.5824584960938 586.0635986328125 204.1030883789062 578.3905639648438 186.5748596191406 C 570.8758544921875 169.4082946777344 561.5569458007812 152.9376220703125 550.69287109375 137.6203002929688 C 539.972900390625 122.5061645507812 527.6302490234375 108.346923828125 514.0076293945312 95.5357666015625 C 500.4523010253906 82.78790283203125 485.4910888671875 71.24407958984375 469.5396118164062 61.2249755859375 C 453.5272216796875 51.16766357421875 436.3532104492188 42.54412841796875 418.4946899414062 35.593994140625 C 400.4154663085938 28.5579833984375 381.4346313476562 23.159912109375 362.0794067382812 19.54986572265625 C 342.3353881835938 15.86724853515625 321.9535522460938 14 301.5 14 M 301.5 13 C 468.0138549804688 13 603 134.9861450195312 603 301.5 C 603 468.0138549804688 468.0138549804688 603 301.5 603 C 134.9861450195312 603 0 468.0138549804688 0 301.5 C 0 134.9861450195312 134.9861450195312 13 301.5 13 Z" stroke="none" fill="#707070"/>
      </g>
    </g>
    <g transform="matrix(1, 0, 0, 1, 0, 0)" filter="url(#Path_29)">
      <path id="Path_29-2" data-name="Path 29" d="M17763.494,899.207c-202.809-8.265-562.9-57.014-709.324-106.327s-206.672-63.19-253.566-88.615-29.473-26.6,0-48.108,202.992,70.2,324.523,104.559,184.773,46.8,361.828,82.482S17763.494,899.207,17763.494,899.207Z" transform="translate(-15853.07 3047.33) rotate(-9)" fill="#5f521e" stroke="#707070" stroke-width="1"/>
    </g>
    <path id="Path_30" data-name="Path 30" d="M16441.469,748.6c132.146,9.828,140.012,9.143,152.145,22.712s21.527,24.474,0,28.348-39.6,3.031-106.094-14.6-81.756-27.338-81.756-27.338Z" transform="translate(-15284.119 252.116)" fill="#aa8b51" stroke="#707070" stroke-width="1"/>
    <path id="Path_31" data-name="Path 31" d="M16441.469,748.6c132.146,9.828,140.012,9.143,152.145,22.712s21.527,24.474,0,28.348-39.6,3.031-106.094-14.6-81.756-27.338-81.756-27.338Z" transform="matrix(0.891, -0.454, 0.454, 0.891, -14076.934, 7751.214)" fill="#aa8b51" stroke="#707070" stroke-width="1"/>
    <path id="Path_32" data-name="Path 32" d="M16420.23,748.6c53.541,5.6,56.727,5.21,61.645,12.94s8.721,13.944,0,16.152-16.047,1.727-42.986-8.316-33.125-15.576-33.125-15.576Z" transform="translate(-14590.821 -4506.204) rotate(17)" fill="#aa8b51" stroke="#707070" stroke-width="1"/>
    <g transform="matrix(1, 0, 0, 1, 0, 0)" filter="url(#Path_50)">
      <path id="Path_50-2" data-name="Path 50" d="M991.895,0C789.086,8.265,428.992,57.014,282.57,106.327S75.9,169.517,29,194.942s-29.473,26.6,0,48.108,202.992-70.2,324.525-104.559S538.3,91.687,715.355,56.009,991.895,0,991.895,0Z" transform="translate(2147.87 1373.81) rotate(-171)" fill="#5f521e" stroke="#707070" stroke-width="1"/>
    </g>
    <path id="Path_51" data-name="Path 51" d="M16441.469,748.6c132.146,9.828,140.012,9.143,152.145,22.712s21.527,24.474,0,28.348-39.6,3.031-106.094-14.6-81.756-27.338-81.756-27.338Z" transform="matrix(0.891, -0.454, 0.454, 0.891, -13342.934, 7889.214)" fill="#aa8b51" stroke="#707070" stroke-width="1"/>
    <g transform="matrix(1, 0, 0, 1, 0, 0)" filter="url(#Ellipse_5)">
      <ellipse id="Ellipse_5-2" data-name="Ellipse 5" cx="15" cy="16" rx="15" ry="16" transform="translate(1599.77 897)" fill="#5d4b27"/>
    </g>
    <g transform="matrix(1, 0, 0, 1, 0, 0)" filter="url(#Ellipse_6)">
      <ellipse id="Ellipse_6-2" data-name="Ellipse 6" cx="15" cy="15.5" rx="15" ry="15.5" transform="translate(966.7 1175)" fill="#5d4b27"/>
    </g>
    <g transform="matrix(1, 0, 0, 1, 0, 0)" filter="url(#Ellipse_14)">
      <ellipse id="Ellipse_14-2" data-name="Ellipse 14" cx="29.5" cy="31" rx="29.5" ry="31" transform="translate(1350.88 863)" fill="#5d4b27"/>
    </g>
    <g transform="matrix(1, 0, 0, 1, 0, 0)" filter="url(#Ellipse_16)">
      <ellipse id="Ellipse_16-2" data-name="Ellipse 16" cx="15" cy="15.5" rx="15" ry="15.5" transform="translate(2067.64 1227)" fill="#5d4b27"/>
    </g>
    <g transform="matrix(1, 0, 0, 1, 0, 0)" filter="url(#Ellipse_22)">
      <ellipse id="Ellipse_22-2" data-name="Ellipse 22" cx="15" cy="15.5" rx="15" ry="15.5" transform="translate(1083.22 1227)" fill="#5d4b27"/>
    </g>
    <g transform="matrix(1, 0, 0, 1, 0, 0)" filter="url(#Ellipse_41)">
      <ellipse id="Ellipse_41-2" data-name="Ellipse 41" cx="29.5" cy="31" rx="29.5" ry="31" transform="translate(1486.88 1051)" fill="#5d4b27"/>
    </g>
    <g transform="matrix(1, 0, 0, 1, 0, 0)" filter="url(#Ellipse_42)">
      <ellipse id="Ellipse_42-2" data-name="Ellipse 42" cx="15" cy="15.5" rx="15" ry="15.5" transform="translate(1832.7 970)" fill="#5d4b27"/>
    </g>
    <g transform="matrix(1, 0, 0, 1, 0, 0)" filter="url(#Ellipse_43)">
      <ellipse id="Ellipse_43-2" data-name="Ellipse 43" cx="15" cy="15.5" rx="15" ry="15.5" transform="translate(840.7 1144)" fill="#5d4b27"/>
    </g>
    <g transform="matrix(1, 0, 0, 1, 0, 0)" filter="url(#Ellipse_44)">
      <ellipse id="Ellipse_44-2" data-name="Ellipse 44" cx="15" cy="15.5" rx="15" ry="15.5" transform="translate(1106.7 955)" fill="#5d4b27"/>
    </g>
    <g transform="matrix(1, 0, 0, 1, 0, 0)" filter="url(#Ellipse_45)">
      <ellipse id="Ellipse_45-2" data-name="Ellipse 45" cx="15" cy="15.5" rx="15" ry="15.5" transform="translate(1292.7 1086)" fill="#5d4b27"/>
    </g>
    <g transform="matrix(1, 0, 0, 1, 0, 0)" filter="url(#Ellipse_46)">
      <ellipse id="Ellipse_46-2" data-name="Ellipse 46" cx="15" cy="15.5" rx="15" ry="15.5" transform="translate(1946.7 1097)" fill="#5d4b27"/>
    </g>
  </g>
</svg>
